<svg xmlns="http://www.w3.org/2000/svg" xmlns:svg="http://www.w3.org/2000/svg" id="svg62" width="42" height="10" fill="none" version="1.1" viewBox="0 0 42 10"><metadata id="metadata68"/><path id="path58" fill="#C4C4C4" d="M33 5L37 1H5L1 5H33Z"/><path id="path60" stroke="#FF3D77" d="M37 1L33 5M37 1H5L1 5M37 1L41 5L37 9M33 5H1M33 5L37 9M1 5L5 9H37"/><path id="path70" d="M 3.7329079,6.9908842 2.2592608,5.5168642 H 17.516326 32.77339 l 1.473647,1.47402 1.473648,1.4740201 H 20.46362 5.206555 Z" style="fill:#000;stroke-width:.0382862"/><path id="path74" d="M 35.36674,6.6174254 33.749314,4.9996641 35.37648,3.372836 37.003646,1.7460078 38.630812,3.372836 40.257978,4.9996641 38.640553,6.6174254 c -0.889584,0.889769 -1.626192,1.6177615 -1.636907,1.6177615 -0.01071,0 -0.747322,-0.7279925 -1.636906,-1.6177615 z" style="fill:#000;stroke-width:.0382862"/></svg>